<?xml version="1.0" encoding="utf-8"?>
<!-- Generator: Adobe Illustrator 25.3.1, SVG Export Plug-In . SVG Version: 6.00 Build 0)  -->
<svg version="1.1" id="Ńëîé_1" xmlns="http://www.w3.org/2000/svg" xmlns:xlink="http://www.w3.org/1999/xlink" x="0px" y="0px"
	 viewBox="0 0 163.1 163.1" style="enable-background:new 0 0 163.1 163.1;" xml:space="preserve">
<style type="text/css">
	.st0{fill:#2F556A;}
	.st1{fill:#DE3F24;}
	.st2{fill:#FCFCFC;}
	.st3{opacity:7.000000e-02;fill:#FFFFFF;}
</style>
<g>
	<g>
		<path class="st0" d="M145.7,77c-2.2-31.9-27.8-57.5-59.7-59.7L81.5,0L77,17.4C45.1,19.6,19.6,45.1,17.4,77L0,81.5L17.4,86
			c2.2,31.9,27.8,57.5,59.7,59.7l4.5,17.4l4.5-17.4c31.9-2.2,57.5-27.8,59.7-59.7l17.4-4.5L145.7,77z M81.5,136.4
			c-30.3,0-54.9-24.6-54.9-54.9c0-30.3,24.6-54.9,54.9-54.9c30.3,0,54.9,24.6,54.9,54.9C136.5,111.7,111.8,136.4,81.5,136.4z"/>
	</g>
	<g>
		<path class="st1" d="M81.5,43.5c-21,0-38,17.1-38,38c0,21,17.1,38,38,38c21,0,38-17.1,38-38C119.6,60.6,102.5,43.5,81.5,43.5z
			 M81.5,111.3c-16.4,0-29.8-13.4-29.8-29.8c0-16.4,13.4-29.8,29.8-29.8s29.8,13.4,29.8,29.8C111.3,98,98,111.3,81.5,111.3z"/>
	</g>
	<path class="st2" d="M107.8,39.4c-1.5-0.9-3.5-0.7-4.7,0.6L70.7,73.9c-0.1,0.1-0.3,0.3-0.4,0.4c-0.2,0.3-0.3,0.6-0.5,0.9
		l-16.1,43.9c-0.6,1.7,0,3.6,1.6,4.5c0.6,0.4,1.3,0.6,2,0.6c1,0,2-0.4,2.7-1.2l32.3-33.9c0.1-0.1,0.3-0.3,0.4-0.4
		c0.2-0.3,0.3-0.6,0.5-0.9l16.1-44C109.9,42.2,109.3,40.4,107.8,39.4z"/>
	<polygon class="st0" points="105.8,42.6 73.4,76.5 89.6,86.6 	"/>
	<polygon class="st1" points="73.4,76.5 73.4,76.5 57.3,120.4 89.6,86.6 89.6,86.6 	"/>
	<path class="st2" d="M86.8,84.8c-1.8,2.9-5.7,3.8-8.6,2c-2.9-1.8-3.8-5.7-2-8.6c1.8-2.9,5.7-3.8,8.6-2
		C87.8,78.1,88.7,81.9,86.8,84.8z"/>
	<path class="st3" d="M131.7,41.3c-0.8,5-1.9,9.9-3.2,14.7c-3.6,13.4-9,26.2-15.9,38.1c-4.9,8.4-10.6,16.4-17,23.7
		c-3.1,3.6-6.4,7.1-9.8,10.4c-6,5.8-12.4,11.1-19.3,15.9c0,0,0,0,0,0l-0.2,0c0,0,0,0,0,0c-26.7-6.5-47-29.8-48.9-58L0,81.5L17.4,77
		c1.5-20.9,12.9-39,29.6-49.7c8.8-5.6,19.1-9.2,30.1-10L81.5,0L86,17.4C104.5,18.6,120.8,27.7,131.7,41.3z"/>
	<path class="st3" d="M66.3,144c-26.7-6.5-47-29.8-48.9-58L0,81.5L17.4,77c1.5-20.9,12.9-39,29.6-49.7c4.1,6.7,7.8,13.8,10.9,21.2
		c4.8,11.5,8.4,23.8,10.4,36.6c0.6,3.7,1,7.5,1.3,11.3c0,0.2,0,0.5,0.1,0.7C70.8,113.2,69.6,129,66.3,144z"/>
</g>
</svg>
