<?xml version="1.0" encoding="utf-8"?>
<!-- Generator: Adobe Illustrator 25.3.1, SVG Export Plug-In . SVG Version: 6.00 Build 0)  -->
<svg version="1.1" id="Warstwa_1" xmlns="http://www.w3.org/2000/svg" xmlns:xlink="http://www.w3.org/1999/xlink" x="0px" y="0px"
	 viewBox="0 0 200.3 121.5" style="enable-background:new 0 0 200.3 121.5;" xml:space="preserve">
<style type="text/css">
	.st0{fill:#75B62A;}
</style>
<g>
	<g>
		<path class="st0" d="M72.2,90L65.8,107h-2.9L56.5,90V107H50V81.7H59l5.3,14.3l5.3-14.3h9.1V107h-6.5V90z"/>
		<path class="st0" d="M99.4,103.2H88.9l-1.3,3.8h-7.1l9.5-25.3h8.2l9.6,25.3h-7.1L99.4,103.2z M90.6,97.7h7.1l-3.6-10.3L90.6,97.7z
			"/>
		<path class="st0" d="M109.7,81.7h12.7c5.7,0,8.8,3.8,8.8,8.4c0,4.5-3.1,8.3-8.8,8.3h-6.1v8.6h-6.5V81.7z M121.4,87.2h-5.3v5.7h5.3
			c1.7,0,3-1.1,3-2.8C124.5,88.4,123.2,87.2,121.4,87.2z"/>
		<path class="st0" d="M147.5,103.2H137l-1.3,3.8h-7.1l9.5-25.3h8.2l9.6,25.3h-7.1L147.5,103.2z M138.7,97.7h7.1l-3.6-10.3
			L138.7,97.7z"/>
	</g>
</g>
<path class="st0" d="M181.9,60.3l-22.3-21.4l-7.6,6.1l-24.6-25.6l-6.6,6.3L99.4,0L79.1,25.6L71.7,19L47.9,43.9l-7.1-5.8
	c0,0-17.3,16.6-22.8,22.4C10.5,63,4.4,65.9,0,69.1c23.5-8.8,59.6-14.4,100.1-14.4c40.5,0,76.6,5.6,100.1,14.4
	C195.8,65.9,189.5,62.9,181.9,60.3z M180.9,59.9c-7.5-2.5-16.3-4.7-26.1-6.4l4.3-10.4L180.9,59.9z M129.9,34.8l-1.8-9.1l21.6,22.8
	l-2.3,3.8c-3.8-0.6-7.8-1-11.9-1.5l-8.4-11.8L129.9,34.8z M98.3,22.3l3.9-6.1l-2.8-9.4l18.5,20.9v8.5l2,1.5l-0.8,8.4l2.4,3.5
	c-5.9-0.4-12-0.6-18.3-0.6l-7.2-14.6l3.3-5.6L98.3,22.3z M64.4,44.7l4.3,0.5l-1-6.9l6.6-0.3l-1.5-12.4l8.4,8.9l3.6,14.2l0.6,0.7
	c-8.6,0.4-16.9,1-24.8,1.9l-1.2-3.9l5.3,1.3L64.4,44.7z M42.3,45.2l8.5,7.5c-7.4,1.1-14.3,2.5-20.5,4.1L42.3,45.2z"/>
<g>
	<g>
		<g>
			<g>
				<path class="st0" d="M49.2,67.9h-3.4v-2.7h9.9v2.7h-3.4v9.4h-3.1V67.9z"/>
				<path class="st0" d="M63.8,75.4h-5l-0.6,1.8h-3.4l4.5-12.1h3.9l4.6,12.1h-3.4L63.8,75.4z M59.6,72.8H63l-1.7-4.9L59.6,72.8z"/>
				<path class="st0" d="M70.2,67.9h-3.4v-2.7h9.9v2.7h-3.4v9.4h-3.1V67.9z"/>
				<path class="st0" d="M82.9,73.2h-1.6v4.1h-3.1V65.2h6c2.7,0,4.2,1.8,4.2,4c0,2.1-1.3,3.2-2.4,3.6l2.5,4.4h-3.6L82.9,73.2z
					 M83.8,67.8h-2.5v2.7h2.5c0.8,0,1.5-0.5,1.5-1.4S84.6,67.8,83.8,67.8z"/>
				<path class="st0" d="M97.9,75.4h-5l-0.6,1.8h-3.4l4.5-12.1h3.9l4.6,12.1h-3.4L97.9,75.4z M93.7,72.8h3.4l-1.7-4.9L93.7,72.8z"/>
			</g>
		</g>
		<g>
			<g>
				<path class="st0" d="M107.2,65.2h3.1v9.4h4.9v2.7h-8V65.2z"/>
				<path class="st0" d="M124.5,75.4h-5l-0.6,1.8h-3.4l4.5-12.1h3.9l4.6,12.1h-3.4L124.5,75.4z M120.3,72.8h3.4l-1.7-4.9L120.3,72.8
					z"/>
				<path class="st0" d="M132.5,70v7.3h-3.1V65.2h3.2l4.9,7v-7h3.1v12.1h-3L132.5,70z"/>
				<path class="st0" d="M142.8,65.2h5.1c3.8,0,6.5,2.3,6.5,6c0,3.8-2.7,6-6.5,6h-5.1V65.2z M147.9,74.5c2.1,0,3.4-1.5,3.4-3.3
					c0-1.9-1.1-3.3-3.3-3.3h-2v6.6H147.9z"/>
			</g>
		</g>
	</g>
	<g>
		<g>
			<path class="st0" d="M103.7,74c0.9,0,1.7,0.8,1.7,1.7s-0.8,1.7-1.7,1.7s-1.7-0.8-1.7-1.7S102.8,74,103.7,74z"/>
		</g>
	</g>
</g>
</svg>
